Coordinates
version=1
nRows=4
nColumns=107
inDegrees=yes

Units are S.I. units (second, meters, Newtons, ...)
If the header above contains a line with 'inDegrees', this indicates whether rotational values are in degrees (yes) or radians (no).

endheader
time	sternoclavicular_r2	sternoclavicular_r3	unrotscap_r3	unrotscap_r2	acromioclavicular_r2	acromioclavicular_r3	acromioclavicular_r1	unrothum_r1	unrothum_r3	unrothum_r2	elv_angle	shoulder_elv	shoulder1_r2	shoulder_rot	elbow_flexion	pro_sup	deviation	flexion	proximal_distal_r1	proximal_distal_r3	cmc_flexion	cmc_abduction	mp_flexion	ip_flexion	mcp2_flexion	mcp2_abduction	pm2_flexion	md2_flexion	mcp3_flexion	mcp3_abduction	pm3_flexion	md3_flexion	mcp4_flexion	mcp4_abduction	pm4_flexion	md4_flexion	mcp5_flexion	mcp5_abduction	pm5_flexion	md5_flexion	bicpt_tx	bicpt_ty	bicpt_tz	bicpt2_tx	bicpt2_ty	bicpt2_tz	ptpt_tx	ptpt_ty	ptpt_tz	FCUpt_tx	FCUpt_ty	FCUpt_tz	EDCpt_tx	EDCpt_ty	EDCpt_tz	APLpt_tx	APLpt_ty	APLpt_tz	FPLpt_tx	FPLpt_ty	FPLpt_tz	FPLpt2_tx	FPLpt2_ty	FPLpt2_tz	PEC1pt2_tx	PEC1pt2_ty	PEC1pt2_tz	PEC1pt3_tx	PEC1pt3_ty	PEC1pt3_tz	PEC2pt2_tx	PEC2pt2_ty	PEC2pt2_tz	PEC2pt3_tx	PEC2pt3_ty	PEC2pt3_tz	PEC3pt2_tx	PEC3pt2_ty	PEC3pt2_tz	PEC3pt3_tx	PEC3pt3_ty	PEC3pt3_tz	DELT2pt2a_tx	DELT2pt2a_ty	DELT2pt2a_tz	DELT2pt2_tx	DELT2pt2_ty	DELT2pt2_tz	LAT1pt2_tx	LAT1pt2_ty	LAT1pt2_tz	LAT1pt3_tx	LAT1pt3_ty	LAT1pt3_tz	LAT2pt2_tx	LAT2pt2_ty	LAT2pt2_tz	LAT2pt3_tx	LAT2pt3_ty	LAT2pt3_tz	LAT3pt2_tx	LAT3pt2_ty	LAT3pt2_tz	LAT3pt3_tx	LAT3pt3_ty	LAT3pt3_tz
      0.00000000	     -0.32910469	      0.13939321	     -0.13939321	      0.32910469	     -0.06663700	      0.53853683	      0.24206860	     -0.24206860	     -0.53853683	      0.06663700	     97.74649572	     77.91846001	     -1.70599818	    -15.48642358	     29.27885587	     35.41208480	      0.18091305	     -0.53169235	      0.21873521	     -0.26584618	     17.45774262	    -17.99001062	    -18.55309526	    -38.97514748	      8.60344212	      6.75508151	     49.97622200	     11.01647502	     10.02720208	     -0.01111603	     32.91920380	     24.28768732	     11.86785525	     -6.09267823	     25.49000114	     26.73008642	     10.96082045	    -13.29206014	     18.13854445	      5.22788719	      0.00086845	     -0.03095580	     -0.00484053	      0.01654176	     -0.01815374	     -0.00794504	      0.00493345	     -0.06659191	     -0.00290263	      0.00732158	     -0.18358751	     -0.00034592	     -0.00424944	      0.00119686	      0.00017365	      0.00030725	      0.00012290	      0.00061450	      0.00039328	      0.00117985	      0.00066366	      0.00001806	     -0.00026713	     -0.00032056	      0.00255400	      0.00896063	      0.00623348	     -0.00835460	      0.02017224	     -0.01913333	      0.00255400	      0.00896063	      0.00623348	      0.00056274	      0.01870045	     -0.00982639	      0.00401368	      0.00498289	      0.01612609	      0.00000000	      0.00812219	      0.00000000	     -0.00731568	     -0.03380798	     -0.00669897	      0.01103543	     -0.00029753	     -0.00189783	     -0.00090905	      0.01523740	     -0.00623348	      0.00251071	      0.02199034	     -0.01818099	     -0.00610362	      0.01320286	     -0.00558416	     -0.01272669	      0.02787752	     -0.03121070	     -0.02389501	      0.01476123	     -0.00748884	     -0.01584343	      0.03220632	     -0.03900255
      0.03333333	     -0.32445765	      0.13742495	     -0.13742495	      0.32445765	     -0.06569607	      0.53093256	      0.23865053	     -0.23865053	     -0.53093256	      0.06569607	     98.53499679	     76.81823211	     -1.71976012	    -20.68471149	     29.72299651	     40.63723903	      0.16062277	     -0.51110812	      0.19687062	     -0.25555406	     16.99786104	    -18.39442329	    -17.57855318	    -38.10522160	      8.12176296	      6.72501802	     49.32391588	     11.36480828	      9.98765810	     -0.10393189	     31.75642836	     26.75424723	     11.39648114	     -6.04037513	     24.49697267	     29.77210667	     10.40936204	    -13.23847858	     18.54223023	      5.22827791	      0.00088314	     -0.03100671	     -0.00484873	      0.01657514	     -0.01827440	     -0.00740173	      0.00454737	     -0.06684155	     -0.00332355	      0.00784446	     -0.18348175	     -0.00039079	     -0.00487646	      0.00140623	      0.00014174	      0.00030420	      0.00012168	      0.00060840	      0.00038937	      0.00116812	      0.00065707	      0.00001917	     -0.00026446	     -0.00031735	      0.00251793	      0.00883410	      0.00614546	     -0.00823663	      0.01988740	     -0.01886316	      0.00251793	      0.00883410	      0.00614546	      0.00055480	      0.01843639	     -0.00968764	      0.00397252	      0.00491253	      0.01602741	      0.00000000	      0.00789279	      0.00000000	     -0.00721238	     -0.03333061	     -0.00650859	      0.01416824	     -0.00045306	     -0.00353956	     -0.00089621	      0.01502224	     -0.00614546	      0.00247526	      0.02167983	     -0.01792427	     -0.00601743	      0.01301643	     -0.00550531	     -0.01254699	      0.02748388	     -0.03077000	     -0.02355761	      0.01455280	     -0.00738309	     -0.01561972	      0.03175156	     -0.03845183
      0.06666667	     -0.32453910	      0.13745945	     -0.13745945	      0.32453910	     -0.06571257	      0.53106584	      0.23871044	     -0.23871044	     -0.53106584	      0.06571257	     98.52609028	     76.83751650	     -1.71960467	    -20.69185937	     29.72332720	     40.63678838	      0.16066129	     -0.51115011	      0.19691264	     -0.25557506	     16.99756063	    -18.39469629	    -17.57905090	    -38.10534177	      8.12179086	      6.72552855	     49.32383594	     11.36475309	      9.98815488	     -0.10375055	     31.75677350	     26.75389057	     11.39479393	     -6.03989600	     24.49625724	     29.77152479	     10.40798162	    -13.23864129	     18.54153168	      5.22821187	      0.00088316	     -0.03100675	     -0.00484874	      0.01657513	     -0.01827449	     -0.00740177	      0.00454740	     -0.06684153	     -0.00332351	      0.00784441	     -0.18348176	     -0.00039079	     -0.00487640	      0.00140621	      0.00014174	      0.00030417	      0.00012167	      0.00060835	      0.00038934	      0.00116802	      0.00065701	      0.00001917	     -0.00026443	     -0.00031732	      0.00251857	      0.00883632	      0.00614701	     -0.00823870	      0.01989240	     -0.01886789	      0.00251857	      0.00883632	      0.00614701	      0.00055494	      0.01844102	     -0.00969007	      0.00397324	      0.00491377	      0.01602916	      0.00000000	      0.00789678	      0.00000000	     -0.00721420	     -0.03333897	     -0.00651191	      0.01417229	     -0.00045328	     -0.00354212	     -0.00089644	      0.01502602	     -0.00614701	      0.00247588	      0.02168527	     -0.01792877	     -0.00601894	      0.01301970	     -0.00550669	     -0.01255014	      0.02749078	     -0.03077772	     -0.02356352	      0.01455645	     -0.00738495	     -0.01562364	      0.03175953	     -0.03846148
      0.10000000	     -0.32342439	      0.13698731	     -0.13698731	      0.32342439	     -0.06548686	      0.52924177	      0.23789053	     -0.23789053	     -0.52924177	      0.06548686	     98.85457851	     76.57359921	     -1.72533788	    -21.85659067	     29.52007571	     41.77383596	      0.16328326	     -0.53457844	      0.19977671	     -0.26728922	     18.29016052	    -18.20658683	    -19.53515355	    -38.29432236	      9.30712612	      7.55077427	     48.90832984	     11.53575519	     11.71471858	      0.41822403	     31.53550268	     24.21598436	     12.86510838	     -5.57196514	     24.37075381	     27.23528290	     11.67367079	    -13.22104966	     18.35723214	      5.18856197	      0.00087643	     -0.03098345	     -0.00484499	      0.01657413	     -0.01821927	     -0.00727847	      0.00446338	     -0.06689586	     -0.00341511	      0.00795931	     -0.18345772	     -0.00039783	     -0.00501285	      0.00145288	      0.00013284	      0.00030763	      0.00012305	      0.00061526	      0.00039377	      0.00118130	      0.00066448	      0.00001603	     -0.00027141	     -0.00032569	      0.00250991	      0.00880597	      0.00612589	     -0.00821040	      0.01982407	     -0.01880309	      0.00250991	      0.00880597	      0.00612589	      0.00055303	      0.01837768	     -0.00965679	      0.00396330	      0.00489689	      0.01600507	      0.00000000	      0.00784224	      0.00000000	     -0.00718942	     -0.03322446	     -0.00646663	      0.01482455	     -0.00048963	     -0.00396952	     -0.00089336	      0.01497441	     -0.00612589	      0.00246737	      0.02161079	     -0.01786719	     -0.00599827	      0.01297498	     -0.00548778	     -0.01250703	      0.02739636	     -0.03067201	     -0.02348259	      0.01450646	     -0.00735958	     -0.01556998	      0.03165045	     -0.03832937
